<?xml version="1.0" standalone="no"?>
<!DOCTYPE svg PUBLIC "-//W3C//DTD SVG 20010904//EN"
 "http://www.w3.org/TR/2001/REC-SVG-20010904/DTD/svg10.dtd">
<svg version="1.0" xmlns="http://www.w3.org/2000/svg"
 width="900.000000pt" height="900.000000pt" viewBox="0 0 900.000000 900.000000"
 preserveAspectRatio="xMidYMid meet">
<metadata>
Created by potrace 1.10, written by Peter Selinger 2001-2011
</metadata>
<g transform="translate(0.000000,900.000000) scale(0.100000,-0.100000)"
fill="#000000" stroke="none">
<path d="M7100 6984 c-102 -47 -205 -94 -230 -105 -25 -11 -97 -46 -160 -77
-63 -31 -126 -61 -140 -67 -14 -5 -59 -29 -100 -52 -41 -23 -102 -56 -135 -75
-168 -93 -561 -325 -698 -412 -34 -22 -136 -84 -227 -139 -288 -173 -359 -233
-386 -325 -8 -31 -22 -89 -30 -130 -16 -85 -51 -204 -70 -241 -8 -14 -14 -32
-14 -38 0 -14 -40 -98 -90 -188 -72 -130 -191 -256 -289 -307 -82 -42 -107
-25 -141 101 -27 96 -26 222 4 394 31 179 61 239 139 278 22 12 37 27 37 37 0
10 -29 49 -64 86 -53 57 -68 67 -92 64 -30 -3 -29 -2 -194 -260 -54 -85 -111
-159 -158 -205 l-73 -73 36 0 c55 0 107 -53 133 -137 12 -38 24 -88 27 -113 3
-25 13 -78 22 -119 l17 -74 -23 -18 c-31 -25 -59 -24 -146 6 -239 83 -439 265
-551 504 -25 53 -57 119 -70 148 -18 38 -36 58 -67 76 -100 58 -321 107 -792
177 -77 12 -183 28 -235 36 -52 8 -152 23 -221 34 -234 36 -562 61 -895 67
-201 4 -323 2 -327 -4 -5 -8 78 -38 536 -195 93 -32 116 -53 97 -88 -10 -19
-21 -20 -158 -20 -185 -1 -592 -46 -615 -69 -20 -20 6 -28 115 -35 62 -4 133
-11 158 -16 25 -5 86 -16 135 -25 121 -23 334 -77 445 -115 91 -30 342 -131
358 -143 18 -14 15 -55 -5 -65 -10 -5 -47 -12 -83 -15 -90 -8 -242 -54 -400
-119 -131 -55 -200 -90 -194 -100 3 -4 76 -8 162 -8 159 0 596 -32 687 -50 28
-5 95 -17 150 -26 93 -14 135 -32 135 -57 0 -5 -33 -44 -72 -87 -75 -80 -128
-157 -199 -294 -62 -120 -119 -256 -107 -256 6 0 41 22 77 48 80 58 338 228
403 265 54 31 70 33 89 11 11 -13 10 -24 -5 -63 -22 -58 -31 -107 -51 -298
-17 -164 -17 -264 2 -270 6 -2 26 17 44 43 62 90 181 224 199 224 23 0 34 -14
58 -78 27 -70 100 -162 127 -159 20 2 23 10 43 126 12 71 32 75 94 15 65 -62
139 -113 170 -116 22 -3 23 0 22 57 0 33 -2 78 -5 100 -3 35 -1 40 18 43 16 2
35 -10 67 -45 l45 -48 53 24 c45 19 143 53 263 91 116 37 337 51 434 28 74
-17 85 -34 90 -136 3 -90 -14 -424 -30 -552 -5 -41 -15 -151 -24 -245 -18
-212 -27 -259 -55 -297 -17 -23 -20 -37 -15 -68 6 -37 2 -66 -31 -220 -7 -36
-18 -114 -23 -175 -12 -126 -39 -277 -76 -415 -88 -332 -132 -628 -106 -720
10 -36 18 -16 36 86 19 112 33 148 50 134 7 -6 15 -7 18 -3 10 16 26 125 32
215 15 222 60 492 116 695 29 105 39 161 39 216 0 82 20 161 56 224 19 32 23
51 19 80 -5 30 2 55 30 118 20 44 39 89 42 100 4 11 29 63 56 115 114 217 153
300 176 371 13 41 30 92 37 114 17 50 41 193 53 310 9 90 9 90 53 130 62 56
217 139 313 168 126 38 210 57 254 57 23 0 57 7 76 14 28 12 35 21 35 43 0 42
10 71 26 77 36 14 59 -21 70 -104 7 -55 17 -68 39 -50 16 13 75 115 75 129 0
6 9 35 21 66 18 50 24 56 46 53 19 -2 33 -17 56 -60 17 -31 37 -60 44 -62 30
-12 80 175 68 258 -14 107 -13 111 21 114 32 3 197 -68 281 -121 83 -52 83
-33 1 127 -60 119 -158 279 -178 291 -15 9 -12 41 6 56 31 26 395 -35 613
-103 40 -13 67 -16 73 -10 12 12 -213 226 -307 291 -113 78 -267 151 -320 151
-24 0 -39 38 -23 60 11 17 398 218 504 261 21 9 75 32 119 52 44 19 98 40 120
47 22 7 45 16 50 20 6 4 60 24 120 45 127 44 155 55 155 66 0 13 -30 19 -183
34 -125 13 -174 13 -276 4 -128 -12 -140 -10 -141 28 0 49 567 366 855 477
177 69 190 75 177 88 -20 20 -436 -24 -597 -62 -27 -7 -78 -21 -112 -32 -48
-14 -67 -16 -83 -8 -26 14 -25 41 3 67 62 58 299 223 514 359 61 38 76 54 51
54 -7 0 -96 -39 -198 -86z"/>
<path d="M3894 5235 c-18 -14 -17 -14 12 -15 17 0 37 7 44 15 10 13 9 15 -12
15 -13 0 -33 -7 -44 -15z"/>
</g>
</svg>
