<?xml version="1.0" standalone="no"?>
<!DOCTYPE svg PUBLIC "-//W3C//DTD SVG 20010904//EN"
 "http://www.w3.org/TR/2001/REC-SVG-20010904/DTD/svg10.dtd">
<svg version="1.0" xmlns="http://www.w3.org/2000/svg"
 width="256.000000pt" height="256.000000pt" viewBox="0 0 256.000000 256.000000"
 preserveAspectRatio="xMidYMid meet">
<metadata>
Created by potrace 1.10, written by Peter Selinger 2001-2011
</metadata>
<g transform="translate(0.000000,256.000000) scale(0.100000,-0.100000)"
fill="#000000" stroke="none">
<path d="M1865 1892 c-113 -55 -353 -196 -420 -247 -23 -17 -34 -38 -48 -93
-21 -81 -62 -151 -101 -172 -24 -12 -28 -12 -36 0 -24 37 -3 171 28 189 15 9
15 11 -2 30 -11 12 -23 21 -27 21 -4 0 -24 -27 -45 -61 -23 -39 -48 -66 -68
-75 l-31 -15 32 6 c36 7 43 -3 57 -77 8 -45 -4 -49 -63 -19 -47 24 -90 72
-115 129 -17 37 -25 44 -70 57 -90 26 -307 56 -446 61 -149 5 -147 9 -12 -42
23 -9 42 -20 42 -25 0 -5 -30 -10 -67 -10 -38 -1 -81 -5 -98 -9 l-30 -7 40 -7
c143 -28 265 -67 265 -86 0 -4 -17 -10 -37 -14 -21 -3 -60 -17 -88 -30 l-50
-24 50 -1 c53 -1 228 -21 234 -26 1 -2 -8 -19 -22 -37 -33 -44 -82 -142 -65
-131 7 4 39 26 71 47 31 21 59 37 62 34 2 -2 0 -31 -5 -64 -6 -32 -10 -70 -10
-84 0 -23 1 -23 31 13 32 38 49 47 49 24 0 -8 9 -22 20 -32 19 -18 20 -17 20
2 0 31 10 34 38 13 33 -27 45 -25 40 5 -5 26 1 32 18 15 7 -7 23 -6 50 4 55
19 120 29 144 21 18 -6 20 -14 19 -88 0 -73 -8 -160 -22 -237 -3 -14 -10 -61
-16 -104 -6 -43 -18 -104 -25 -135 -23 -91 -29 -141 -17 -141 6 0 11 12 11 28
0 21 2 24 10 12 7 -11 10 -1 10 35 0 28 8 86 16 130 9 44 18 94 20 110 9 55
27 109 65 195 21 47 44 115 51 150 12 60 16 66 53 87 22 12 59 25 83 29 32 5
46 12 52 28 8 21 10 19 23 -24 3 -10 11 -1 23 23 17 35 19 37 32 20 11 -16 14
-16 23 -3 5 8 8 30 6 48 -4 38 12 42 61 12 17 -11 32 -16 32 -12 0 4 -14 31
-30 61 -17 30 -30 56 -30 58 0 7 59 2 113 -11 31 -7 57 -10 57 -7 0 13 -90 82
-125 97 -19 8 -35 18 -35 22 0 9 140 78 225 110 l50 20 -58 7 c-31 4 -66 5
-77 2 -11 -3 -20 -1 -20 4 0 13 72 56 175 106 81 38 86 43 55 42 -19 0 -66 -6
-105 -13 -38 -8 -72 -12 -74 -10 -5 5 14 20 89 71 103 70 99 69 -55 -5z"/>
</g>
</svg>
