<?xml version="1.0" standalone="no"?>
<!DOCTYPE svg PUBLIC "-//W3C//DTD SVG 20010904//EN"
 "http://www.w3.org/TR/2001/REC-SVG-20010904/DTD/svg10.dtd">
<svg version="1.0" xmlns="http://www.w3.org/2000/svg"
 width="120.000000pt" height="120.000000pt" viewBox="0 0 120.000000 120.000000"
 preserveAspectRatio="xMidYMid meet">
<metadata>
Created by potrace 1.10, written by Peter Selinger 2001-2011
</metadata>
<g transform="translate(0.000000,120.000000) scale(0.100000,-0.100000)"
fill="#000000" stroke="none">
<path d="M520 1120 c-62 -11 -138 -38 -180 -63 -196 -117 -300 -345 -256 -558
53 -255 261 -431 511 -431 155 -1 268 45 376 153 201 200 211 512 23 727 -113
129 -313 202 -474 172z m189 -45 c217 -52 381 -256 381 -475 -1 -256 -190
-465 -449 -495 -49 -6 -65 -4 -72 6 -12 19 -11 52 0 45 5 -4 4 7 -2 24 -9 24
-7 53 10 148 21 119 39 195 53 222 4 8 21 20 39 26 18 6 37 17 42 25 6 10 9
10 9 2 0 -7 5 -13 11 -13 5 0 7 5 3 12 -5 8 -2 9 11 5 14 -6 17 -3 13 18 -6
29 7 32 34 8 10 -9 18 -12 18 -6 0 5 -9 18 -20 28 -39 36 -21 42 60 20 l25 -7
-25 21 c-14 12 -38 24 -53 28 -43 9 -28 24 54 55 73 28 73 29 27 24 -67 -8
-61 9 17 46 74 34 80 48 11 25 -57 -19 -60 -6 -6 24 22 13 40 27 40 31 0 12
-28 -4 -155 -87 -99 -64 -112 -76 -123 -112 -13 -42 -47 -93 -63 -93 -13 0
-11 84 3 98 9 9 9 15 0 24 -8 8 -14 4 -23 -16 -7 -15 -24 -34 -38 -42 -15 -9
-18 -13 -7 -9 22 6 36 -9 36 -42 0 -17 -4 -21 -17 -16 -26 9 -64 45 -73 69 -8
21 -63 33 -263 59 -60 8 -63 -10 -2 -19 61 -10 57 -24 -6 -24 -28 -1 -54 -3
-57 -6 -3 -3 9 -6 26 -6 52 0 133 -21 129 -33 -2 -7 -12 -13 -23 -15 -84 -13
-87 -30 -4 -24 33 2 67 1 77 -3 16 -6 16 -8 3 -18 -20 -15 -50 -58 -50 -71 0
-6 16 5 35 24 41 40 52 35 35 -15 -14 -42 -7 -57 11 -24 11 22 12 22 25 4 14
-18 14 -18 14 1 1 18 1 18 14 2 16 -21 28 -24 20 -4 -5 14 1 15 81 19 l40 2
-2 -40 c-1 -22 -7 -62 -12 -90 -32 -166 -38 -236 -21 -281 l11 -27 -48 7
c-134 18 -279 130 -346 266 -96 195 -61 407 92 561 125 125 285 173 450 134z
m104 -272 c-4 -10 -17 -26 -29 -35 -14 -11 -24 -34 -29 -64 -8 -53 -30 -79
-79 -92 -19 -6 -45 -19 -57 -31 -17 -15 -26 -18 -41 -10 -12 7 -31 6 -56 -1
-20 -5 -53 -10 -72 -10 -31 0 -37 5 -54 41 -11 22 -28 45 -37 50 -9 5 -31 22
-47 39 l-30 29 37 -3 c113 -11 130 -17 150 -51 29 -50 61 -67 110 -59 49 8 83
39 101 95 8 22 23 47 34 55 98 69 109 74 99 47z"/>
</g>
</svg>
